<svg xmlns="http://www.w3.org/2000/svg" viewBox="0 0 100 100" width="100" height="100">
  <defs>
    <linearGradient id="grad1" x1="0%" y1="0%" x2="100%" y2="100%">
      <stop offset="0%" style="stop-color:#5c6bc0;stop-opacity:1" />
      <stop offset="100%" style="stop-color:#7c4dff;stop-opacity:1" />
    </linearGradient>
  </defs>

  <!-- Shield outline -->
  <path d="M50 5 L90 20 L90 50 C90 75 70 90 50 95 C30 90 10 75 10 50 L10 20 Z"
        fill="url(#grad1)" />

  <!-- Inner shield -->
  <path d="M50 12 L82 24 L82 50 C82 70 65 82 50 87 C35 82 18 70 18 50 L18 24 Z"
        fill="white" fill-opacity="0.15" />

  <!-- Lock body -->
  <rect x="35" y="45" width="30" height="25" rx="3" fill="white" />

  <!-- Lock shackle -->
  <path d="M40 45 L40 35 C40 27 44 22 50 22 C56 22 60 27 60 35 L60 45"
        fill="none" stroke="white" stroke-width="5" stroke-linecap="round" />

  <!-- Keyhole -->
  <circle cx="50" cy="55" r="4" fill="url(#grad1)" />
  <rect x="48" y="55" width="4" height="8" fill="url(#grad1)" />
</svg>
